<svg height="512" viewBox="0 0 64 64" width="512" xmlns="http://www.w3.org/2000/svg"><g id="open_book-books-coffee_cup-reading" data-name="open book-books-coffee cup-reading"><path d="m22 5h-19v36h23v-32a4 4 0 0 0 -4-4z" fill="#fff"/><path d="m49 5h-19a4 4 0 0 0 -4 4v32h23z" fill="#e9e9ea"/><path d="m45 3v14l-3-3-3 3v-14z" fill="#d80027"/><path d="m35 51v10h-29a3 3 0 0 1 -3-3v-4a3 3 0 0 1 3-3z" fill="#cc7400"/><path d="m40 41v10h-29a3 3 0 0 1 -3-3v-4a3 3 0 0 1 3-3z" fill="#64c37d"/><path d="m40 44v4h-27a2.006 2.006 0 0 1 -2-2 2.015 2.015 0 0 1 2-2z" fill="#a78966"/><path d="m35 54v4h-27a2.006 2.006 0 0 1 -2-2 2.015 2.015 0 0 1 2-2z" fill="#b39a7c"/><path d="m46 38h14 1v4h-1-14-1v-1-3z" fill="#ffb655"/><path d="m60 34v4h-14v-4h8l3-2z" fill="#ffeb99"/><path d="m60 42-1 19h-12l-1-19z" fill="#ffeb99"/><path d="m8 17h4v6h2v-13a1 1 0 0 0 -1-1h-6a1 1 0 0 0 -1 1v13h2zm0-6h4v4h-4z"/><path d="m16 9h2v2h-2z"/><path d="m19 9h4v2h-4z"/><path d="m16 13h7v2h-7z"/><path d="m16 17h4v2h-4z"/><path d="m21 17h2v2h-2z"/><path d="m16 21h7v2h-7z"/><path d="m29 9h7v2h-7z"/><path d="m29 13h7v2h-7z"/><path d="m29 17h7v2h-7z"/><path d="m29 21h17v2h-17z"/><path d="m29 25h13v2h-13z"/><path d="m29 29h17v2h-17z"/><path d="m29 33h6v2h-6z"/><path d="m6 25h13v2h-13z"/><path d="m6 29h17v2h-17z"/><path d="m6 33h6v2h-6z"/><path d="m61 37v-3a1 1 0 0 0 -.45-.83l-3-2a.963.963 0 0 0 -1.1 0l-2.75 1.83h-3.7v-28a1 1 0 0 0 -1-1h-3v-1a1 1 0 0 0 -1-1h-6a1 1 0 0 0 -1 1v1h-8a4.994 4.994 0 0 0 -4 2.03 4.994 4.994 0 0 0 -4-2.03h-19a1 1 0 0 0 -1 1v36a1 1 0 0 0 1 1h4.56a3.906 3.906 0 0 0 -.56 2v4a3.906 3.906 0 0 0 .56 2h-1.56a4 4 0 0 0 -4 4v4a4 4 0 0 0 4 4h29a1 1 0 0 0 1-1v-9h4a1 1 0 0 0 1-1v-9h3a1 1 0 0 0 1 1h.05l.95 18.05a1.007 1.007 0 0 0 1 .95h12a1.007 1.007 0 0 0 1-.95l.95-18.05h.05a1 1 0 0 0 1-1v-4a1 1 0 0 0 -1-1zm-7-2a.967.967 0 0 0 .55-.17l2.45-1.63 2 1.34v2.46h-12v-2zm-14-31h4v10.59l-1.29-1.3a1.014 1.014 0 0 0 -1.42 0l-1.29 1.3zm-6 53h-26a1 1 0 0 1 0-2h26zm0-4h-26a3 3 0 0 0 0 6h26v1h-28a2.006 2.006 0 0 1 -2-2v-4a2.006 2.006 0 0 1 2-2h28zm5-6h-26a1 1 0 0 1 0-2h26zm0-4h-26a3 3 0 0 0 0 6h26v1h-28a2.006 2.006 0 0 1 -2-2v-4a2.006 2.006 0 0 1 2-2h28zm6-9v3a1 1 0 0 0 -1 1v2h-17v-4h-2v4h-21v-34h18a3.009 3.009 0 0 1 3 3v2h2v-2a3.009 3.009 0 0 1 3-3h8v11a.987.987 0 0 0 .62.92 1 1 0 0 0 1.09-.21l2.29-2.3 2.29 2.3a1.007 1.007 0 0 0 .71.29.838.838 0 0 0 .38-.08.987.987 0 0 0 .62-.92v-11h2v27h-2a1 1 0 0 0 -1 1zm13.05 26h-10.1l-.9-17h11.9zm1.95-19h-14v-2h14z"/></g></svg>